<?xml version="1.0" encoding="UTF-8" standalone="no"?>
<svg
   sodipodi:docname="copy.svg"
   inkscape:version="1.2.2 (b0a8486541, 2022-12-01)"
   id="svg8"
   version="1.1"
   viewBox="0 0 5.9972222 7.0555556"
   height="20pt"
   width="17pt"
   xmlns:inkscape="http://www.inkscape.org/namespaces/inkscape"
   xmlns:sodipodi="http://sodipodi.sourceforge.net/DTD/sodipodi-0.dtd"
   xmlns:xlink="http://www.w3.org/1999/xlink"
   xmlns="http://www.w3.org/2000/svg"
   xmlns:svg="http://www.w3.org/2000/svg"
   xmlns:rdf="http://www.w3.org/1999/02/22-rdf-syntax-ns#"
   xmlns:cc="http://creativecommons.org/ns#"
   xmlns:dc="http://purl.org/dc/elements/1.1/">
  <defs
     id="defs2">
    <linearGradient
       id="linearGradient862"
       inkscape:collect="always">
      <stop
         id="stop858"
         offset="0"
         style="stop-color:#cbecff;stop-opacity:1;" />
      <stop
         id="stop860"
         offset="1"
         style="stop-color:#cbecff;stop-opacity:0;" />
    </linearGradient>
    <pattern
       id="EMFhbasepattern"
       patternUnits="userSpaceOnUse"
       width="6"
       height="6"
       x="0"
       y="0" />
    <linearGradient
       gradientUnits="userSpaceOnUse"
       y2="98.214287"
       x2="161.33929"
       y1="72.232147"
       x1="161.33929"
       id="linearGradient864"
       xlink:href="#linearGradient862"
       inkscape:collect="always"
       gradientTransform="matrix(0.01346795,0,0,0.014562,-0.0287015,-0.21608019)" />
  </defs>
  <sodipodi:namedview
     inkscape:window-maximized="1"
     inkscape:window-y="0"
     inkscape:window-x="0"
     inkscape:window-height="1007"
     inkscape:window-width="1920"
     showgrid="false"
     inkscape:document-rotation="0"
     inkscape:current-layer="layer1"
     inkscape:document-units="mm"
     inkscape:cy="22.728432"
     inkscape:cx="24.464632"
     inkscape:zoom="15.839192"
     inkscape:pageshadow="2"
     inkscape:pageopacity="0.0"
     borderopacity="1.0"
     bordercolor="#666666"
     pagecolor="#ffffff"
     id="base"
     inkscape:showpageshadow="0"
     inkscape:pagecheckerboard="1"
     inkscape:deskcolor="#d1d1d1" />
  <metadata
     id="metadata5">
    <rdf:RDF>
      <cc:Work
         rdf:about="">
        <dc:format>image/svg+xml</dc:format>
        <dc:type
           rdf:resource="http://purl.org/dc/dcmitype/StillImage" />
      </cc:Work>
    </rdf:RDF>
  </metadata>
  <g
     id="layer1"
     inkscape:groupmode="layer"
     inkscape:label="Layer 1">
    <path
       id="path846"
       d="M 2.1638698,7.0127546 C 2.1144718,6.9993852 2.0566128,6.9452662 2.0367427,6.8938433 2.0224411,6.856832 2.0173966,6.7653137 2.0173966,6.5428708 V 6.241962 L 1.1038025,6.2416317 C 0.09169364,6.2413165 0.14138217,6.2461463 0.0837434,6.1431745 0.05828558,6.0977123 0.05732312,6.0140564 0.05379386,3.5409656 0.05018952,1.0166336 0.05048662,0.98498297 0.07791002,0.9237243 0.12934794,0.80883565 0.13868948,0.80669766 0.58586685,0.8074679 l 0.39419649,6.7916e-4 0.0588475,-0.0967778 C 1.1372279,0.54967969 1.2934713,0.43950422 1.449075,0.4221399 1.519657,0.4142629 1.524161,0.4109944 1.5642029,0.338571 1.6142449,0.2480621 1.7206064,0.1410214 1.8075192,0.09370235 1.9044742,0.04091557 1.9998118,0.02526439 2.2244001,0.02526439 c 0.2249365,0 0.3267978,0.01973723 0.4254893,0.08244553 0.06814,0.0432968 0.1876037,0.17356594 0.2302095,0.2510344 0.027391,0.049804 0.036625,0.055189 0.1083697,0.0631948 0.1527495,0.0170459 0.3382264,0.15558804 0.4207164,0.31425474 l 0.037231,0.0716124 0.3934162,-1.0455e-4 c 0.4360688,-1.211e-4 0.4551011,0.003517 0.5077567,0.0968861 0.025563,0.0453307 0.027234,0.0789972 0.027283,0.54979969 l 5.09e-5,0.5015119 h 0.187415 c 0.1030784,0 0.2050868,0.00716 0.2266854,0.015916 0.044601,0.018077 1.139546,1.1915245 1.1701857,1.2540826 0.016978,0.034664 0.019949,0.310188 0.019949,1.8502896 v 1.8095599 l -0.037711,0.048456 c -0.07394,0.095011 0.041767,0.089769 -1.939235,0.087855 -0.9957432,-9.497e-4 -1.8229975,-0.00515 -1.8383423,-0.00931 z M 5.852265,6.9594831 c 0.018441,-0.010249 0.04669,-0.037795 0.062774,-0.061216 L 5.944284,6.8556881 5.948164,5.0883026 C 5.9503057,4.1162383 5.9487633,3.3062757 5.9447421,3.2883839 5.9372421,3.2550169 4.8296299,2.0452548 4.7806086,2.0168881 4.7652849,2.0080209 4.6646679,2.0011461 4.5502141,2.0011461 H 4.3470239 L 4.3462365,1.5071757 C 4.3453662,0.9610005 4.3413633,0.92990644 4.2647493,0.87420929 4.2181095,0.84030268 4.2109049,0.83975009 3.8155205,0.83975009 H 3.4136918 L 3.3899168,0.78557639 C 3.3208662,0.62824399 3.1048172,0.46293466 2.9676003,0.46244241 2.8895238,0.46216172 2.8835592,0.45800146 2.8374556,0.37165608 2.7872381,0.27760582 2.6739711,0.16689495 2.5784329,0.11847871 2.5025986,0.08004783 2.4861366,0.0778106 2.2444692,0.07309236 2.0425082,0.06914927 1.9745219,0.07307992 1.9136291,0.09221996 1.8155162,0.12305914 1.6774782,0.2361803 1.6180226,0.33446733 1.5469344,0.45198525 1.534886,0.46267337 1.4735011,0.46267337 c -0.1357268,0 -0.3106083,0.11998697 -0.4050736,0.27792264 l -0.058546,0.0978822 -0.41104929,0.004404 -0.41104933,0.004404 -0.0477343,0.0563398 -0.04773429,0.0563398 V 3.5245293 6.0890927 l 0.04774602,0.056337 0.047746,0.056337 0.93223186,0.00752 0.932232,0.00752 0.00698,0.3242853 c 0.0048,0.2227138 0.012547,0.3348271 0.024763,0.35794 0.043505,0.082308 -0.055772,0.078228 1.9142685,0.07864 1.4179545,2.756e-4 1.8278712,-0.00372 1.8539877,-0.018248 z M 2.3800928,4.4899149 V 2.3480566 h 1.0875745 1.0875748 l 0.00401,0.5263428 c 0.00381,0.5017301 0.0053,0.5279237 0.031902,0.560155 0.0587,0.071141 0.087722,0.074899 0.5785362,0.074899 h 0.4608588 l -0.00355,1.5573268 -0.00355,1.5573265 -1.621672,0.0038 -1.621672,0.0038 z M 5.588562,5.0699533 V 3.5407463 L 5.1081907,3.5364163 4.6278197,3.5320863 4.584983,3.4876943 C 4.5614222,3.46327 4.5359428,3.4191521 4.5283618,3.3896457 4.520626,3.359537 4.5145438,3.1263536 4.5145002,2.8582063 l -7.63e-5,-0.4777909 -1.053215,-4.53e-5 -1.0532149,-4.52e-5 v 2.1019232 c 0,1.9893128 0.00131,2.1022696 0.024412,2.1083904 0.013426,0.00356 0.729055,0.00689 1.5902849,0.00752 l 1.5658726,0.00103 V 5.069939 Z M 0.41964622,5.8436787 c -0.003675,-0.010439 -0.005066,-1.0608379 -0.003097,-2.3342259 l 0.00358,-2.3152508 0.29329965,-0.00406 0.29329963,-0.00406 0.05946,0.097786 c 0.069889,0.1149365 0.1474036,0.187672 0.2616561,0.2455242 l 0.082725,0.041888 h 0.8021231 0.8021174 l 0.080694,-0.035216 C 3.1932557,1.4933993 3.3272078,1.364088 3.3810789,1.2603788 l 0.038279,-0.073692 0.2961688,-1.5e-5 c 0.2955676,-1.52e-5 0.2961845,5.42e-5 0.3038502,0.033921 0.00422,0.018666 0.00591,0.2002278 0.00375,0.4034721 l -0.00393,0.3695349 -0.9276662,0.00754 c -0.9830888,0.00799 -0.9691596,0.00689 -1.0075581,0.079532 -0.014007,0.026499 -0.01923,0.4284737 -0.024732,1.9038914 l -0.00698,1.8703004 -0.8129744,0.00388 c -0.64297366,0.00309 -0.81437044,-7.45e-5 -0.81965044,-0.01508 z M 2.0174179,3.973257 c 1.39e-5,-1.725673 0.00158,-1.847221 0.024412,-1.8956234 0.013415,-0.028446 0.042109,-0.065776 0.063767,-0.082957 0.038753,-0.030744 0.053918,-0.031305 0.9590533,-0.035426 l 0.9196779,-0.00419 V 1.5934863 1.2319096 H 3.7136305 3.4429337 l -0.034859,0.064315 c -0.05019,0.0926 -0.1781172,0.2174104 -0.2711646,0.2645578 L 3.056661,1.6014454 H 2.2126943 1.3687274 l -0.0837,-0.044081 C 1.1914323,1.5080698 1.0434521,1.3566337 1.0141586,1.2801681 L 0.99567102,1.2319101 H 0.72012896 0.44458669 l -0.001204,2.2511477 c -6.63e-4,1.2381315 0.002182,2.2698126 0.006317,2.2926261 l 0.007529,0.041478 H 1.2373119 2.017396 l 2.79e-5,-1.8439048 z m 2.869001,-0.8207703 c -0.00511,-0.00553 -0.0093,-0.1277032 -0.0093,-0.2714951 0,-0.2003529 0.00411,-0.2614398 0.017596,-0.2614398 0.027091,0 0.4706495,0.4870164 0.4706495,0.5167616 0,0.023878 -0.02105,0.026229 -0.2348228,0.026229 -0.1291527,0 -0.2390079,-0.00452 -0.2441227,-0.010056 z M 5.1071045,2.9028836 C 4.9997936,2.7849585 4.9116386,2.6867233 4.9112047,2.6845831 c -0.00605,-0.029811 -0.00435,0.335505 0.00173,0.3761484 l 0.00848,0.056562 H 5.1118191 5.3022167 Z M 1.4251083,1.2209075 C 1.3377693,1.1969199 1.2986724,1.1158783 1.3090655,0.98036959 c 0.011064,-0.14425917 0.078221,-0.18483312 0.307052,-0.18550888 0.1137205,-3.3574e-4 0.1247762,-0.003192 0.1658774,-0.0429023 0.036453,-0.0352165 0.046072,-0.0586391 0.055858,-0.1360127 0.0065,-0.0514087 0.022004,-0.1102713 0.034448,-0.13080601 0.035947,-0.0593186 0.1004748,-0.0704117 0.378473,-0.0650647 0.2518886,0.004847 0.2546436,0.005259 0.2901717,0.0437118 0.026283,0.0284463 0.039068,0.0632977 0.047843,0.13041546 0.022751,0.17402595 0.047797,0.19316401 0.2663364,0.20350926 0.1717728,0.008132 0.2087295,0.0204421 0.2460009,0.0819463 0.035115,0.0579468 0.032287,0.21914548 -0.0048,0.27322308 -0.052226,0.076164 -0.066444,0.077394 -0.8836381,0.076429 -0.4181391,-4.956e-4 -0.7725527,-0.00428 -0.7875779,-0.0084 z M 3.0132354,1.1722254 C 3.0831881,1.143469 3.1141567,1.0062135 3.071035,0.91605158 3.0431052,0.85765394 2.9861279,0.8397603 2.8278943,0.83969369 2.63112,0.83961117 2.576321,0.79320926 2.5540797,0.60783948 2.5368437,0.46418637 2.4856479,0.44412378 2.1580936,0.45266092 l -0.2010743,0.005243 -0.03956,0.0478731 c -0.029592,0.0358105 -0.039561,0.0632043 -0.039561,0.1087164 0,0.0705661 -0.023927,0.12687377 -0.07647,0.17995598 -0.034559,0.0349132 -0.049981,0.0382183 -0.2119089,0.0454099 -0.1699656,0.007548 -0.1755358,0.008884 -0.2081773,0.0499149 -0.026661,0.0335129 -0.033539,0.059237 -0.033539,0.1254348 0,0.071932 0.00556,0.089282 0.040777,0.1273649 l 0.040777,0.044089 h 0.7743823 c 0.4593203,0 0.7886692,-0.00588 0.8094972,-0.014435 z"
       style="fill:#000000;stroke-width:0.0145054" />
    <path
       id="path848"
       d="m 2.5316554,6.5861826 -0.1021117,-0.00333 -0.00602,-0.05427 c -0.00332,-0.029851 -0.00607,-0.9751861 -0.00612,-2.1007506 l -8.1e-5,-2.0464841 h 1.0480706 1.0480705 l 0.00291,0.5070695 c 0.00325,0.5646977 -5.306e-4,0.5328096 0.071863,0.6075327 l 0.036868,0.038054 0.4785932,0.00748 0.4785932,0.00748 V 5.0714502 6.593923 l -1.4742638,-0.00222 c -0.8108426,-0.00119 -1.5202095,-0.00372 -1.5763708,-0.00554 z"
       style="fill:#ffffff;fill-opacity:1;stroke-width:0.0100031" />
    <path
       id="path850"
       d="m 4.9237736,3.0998469 c -0.00967,-0.016902 -0.018604,-0.3991822 -0.00924,-0.3948821 0.00483,0.00222 0.090785,0.094135 0.1910118,0.2042596 L 5.287778,3.1094519 H 5.1085207 c -0.099217,0 -0.1817083,-0.00428 -0.1847471,-0.00961 z"
       style="fill:#ffffff;fill-opacity:1;stroke-width:0.0100031" />
    <path
       id="path852"
       d="m 0.45782537,5.8008215 c -0.004276,-0.00713 -0.009298,-1.0368926 -0.0111577,-2.2883143 l -0.003386,-2.2753125 h 0.27322205 0.27322215 l 0.0203328,0.045251 c 0.04106,0.091378 0.1758328,0.2261958 0.2871146,0.287209 l 0.057134,0.031326 0.8595177,1.31e-4 0.8595179,1.311e-4 0.074555,-0.041938 C 3.2396431,1.5076987 3.3547291,1.3953603 3.409266,1.3041808 l 0.040067,-0.066988 h 0.2632094 0.2632095 v 0.3579845 0.3579845 l -0.9066815,0.00347 c -0.8843216,0.00338 -0.9076154,0.00398 -0.9445435,0.024268 -0.020824,0.011442 -0.050671,0.03818 -0.066327,0.05942 -0.026912,0.036512 -0.028889,0.045871 -0.036241,0.1716236 -0.00428,0.073154 -0.00798,0.9135036 -0.00823,1.8674446 l -4.5e-4,1.7344338 H 1.23944 c -0.60851115,0 -0.7755004,-0.00277 -0.78161463,-0.013005 z"
       style="fill:#d5a28e;fill-opacity:1;stroke-width:0.0100031" />
    <path
       id="path854"
       d="M 2.2297285,6.9580519 C 2.1292225,6.9484684 2.1121714,6.9417758 2.0945937,6.905018 2.076791,6.8677929 2.0619928,6.6342386 2.06163,6.3847662 L 2.0613796,6.21201 1.1267309,6.2043274 0.19208242,6.1966448 0.14586179,6.1430882 0.09964115,6.0895315 0.09927446,3.5274856 0.0989077,0.96543955 0.14403218,0.90892629 0.18915665,0.85241304 h 0.14089964 c 0.0774946,0 0.26389763,-0.003073 0.41422863,-0.006827 l 0.27332898,-0.006827 0.03848,-0.0668143 c 0.046398,-0.0805639 0.1549883,-0.19511732 0.2266781,-0.23912643 0.064367,-0.0395133 0.1429892,-0.0652548 0.1993083,-0.0652548 0.048963,0 0.072951,-0.0220404 0.1464013,-0.13451831 C 1.6812182,0.252286 1.7643194,0.17731721 1.8554734,0.12826569 1.9436894,0.08079497 2.0425513,0.07059687 2.3081574,0.08156798 l 0.193307,0.0079844 0.070962,0.03697325 c 0.099014,0.05159 0.1868285,0.13432964 0.2495429,0.23512216 0.057153,0.0918548 0.07088,0.10139486 0.1579494,0.10977407 0.1390121,0.0133781 0.3329617,0.16656912 0.4047107,0.31966094 l 0.023034,0.0491466 0.3970795,0.00377 c 0.4287977,0.004071 0.4378611,0.005227 0.4851422,0.0616812 0.041818,0.0499323 0.044492,0.0829165 0.048928,0.6036183 l 0.00422,0.4956632 0.2088085,0.0036 c 0.1853083,0.0032 0.211938,0.00582 0.2366145,0.023314 0.033346,0.023636 0.77292,0.8239473 0.9920907,1.0735655 l 0.154974,0.1765034 0.00717,0.2856375 c 0.00395,0.1571005 0.00396,0.9633958 1.34e-5,1.7917668 l -0.00715,1.5061294 -0.040076,0.044583 c -0.038755,0.043118 -0.042565,0.044813 -0.1155631,0.051482 -0.1006362,0.0092 -3.4517507,0.00594 -3.5502007,-0.00341 z M 5.6251493,6.6238623 c 0.00271,-0.00293 0.00609,-0.7055591 0.00749,-1.561396 l 0.00256,-1.5560674 -0.4617582,-0.00438 C 4.6789515,3.4973256 4.662759,3.4956502 4.6088849,3.4436034 4.5800087,3.4157068 4.5790719,3.4118747 4.5715338,3.2908244 4.5672812,3.2225338 4.5635245,2.9806042 4.5631856,2.7532029 L 4.5625702,2.3397461 H 3.4707038 2.378838 v 2.1492365 2.1492359 l 1.6206917,-0.00451 c 0.8913805,-0.00246 1.6229092,-0.00689 1.6256196,-0.00984 z m -3.711187,-0.7647827 0.1442412,-0.00673 0.00728,-1.7432904 c 0.00401,-0.9588094 0.010184,-1.8075722 0.013722,-1.8861394 0.00768,-0.1704576 0.011682,-0.177742 0.1072245,-0.195117 0.049757,-0.00905 0.975983,-0.025155 1.7724784,-0.030822 l 0.064935,-4.616e-4 V 1.6033427 c 0,-0.2919335 -0.00297,-0.3963879 -0.011544,-0.4056557 -0.00848,-0.00919 -0.089558,-0.012469 -0.3054326,-0.012386 l -0.2938899,1.121e-4 -0.033336,0.062604 c -0.061806,0.11607 -0.1998613,0.2450203 -0.3177931,0.296833 l -0.057337,0.025191 H 2.2104396 1.4163613 l -0.069504,-0.03762 C 1.2060896,1.4562306 1.1437705,1.3964585 1.0526061,1.2501965 l -0.04052,-0.065009 H 0.71422592 0.4163655 l -4.042e-5,1.3339832 c -2.158e-5,0.7336907 -0.002807,1.5282298 -0.006184,1.7656424 -0.003378,0.2374123 -0.002846,0.6876911 0.001181,1.000618 l 0.007326,0.5689588 0.0445538,0.00388 C 0.54438858,5.86524 1.7670728,5.86595 1.9139627,5.8591412 Z M 5.2825369,3.1649828 c 0.053153,-0.00447 0.081897,-0.011423 0.085149,-0.020587 C 5.3738102,3.1271406 5.3518965,3.098503 5.195233,2.919029 5.0342867,2.7346486 4.9007569,2.6044132 4.8874312,2.6188213 4.8744361,2.6328718 4.8658795,2.9315158 4.8747903,3.0600234 l 0.00698,0.1006531 0.083304,0.00345 c 0.1742179,0.00722 0.2397024,0.0074 0.3174626,8.563e-4 z M 3.0027711,1.2181722 C 3.0839046,1.1992075 3.1180004,1.1529104 3.1266319,1.0499869 3.1383096,0.91074209 3.102274,0.83320259 3.0159653,0.81186017 2.9909405,0.80567207 2.9107262,0.79597548 2.8377113,0.79031228 2.6401095,0.77498575 2.6208625,0.75998974 2.5950496,0.60124691 c -0.00746,-0.045864 -0.022399,-0.098852 -0.033201,-0.11775108 -0.033897,-0.0593007 -0.053276,-0.0628132 -0.34655,-0.0628132 -0.3499291,0 -0.3460775,-0.001885 -0.3805656,0.18588372 -0.017255,0.0939411 -0.039945,0.13817651 -0.084635,0.1650006 -0.011334,0.006803 -0.081214,0.0153621 -0.1552868,0.0190204 -0.1519518,0.007508 -0.2067616,0.0216761 -0.2453979,0.0634506 -0.050621,0.0547336 -0.063078,0.21602905 -0.022474,0.29099825 0.039313,0.072584 0.05032,0.075889 0.2757576,0.08282 0.2962925,0.00911 1.3508828,0.00181 1.4000742,-0.00968 z"
       style="fill:#e1e1e1;fill-opacity:1;stroke-width:0.0100031" />
    <path
       id="path856"
       d="m 1.3976018,1.1391598 -0.04329,-0.048489 3.825e-4,-0.07631 c 3.34e-4,-0.0667319 0.00367,-0.0809819 0.026638,-0.11352939 0.030851,-0.0437332 0.035999,-0.0450289 0.2303495,-0.0579714 0.1603559,-0.0106781 0.1858717,-0.0206481 0.2311585,-0.090317 0.01879,-0.0289073 0.029846,-0.0630419 0.036248,-0.11191514 0.010922,-0.0833866 0.026471,-0.11920223 0.068258,-0.15721952 l 0.030957,-0.0281644 0.2315324,0.003707 c 0.2148096,0.003437 0.2343485,0.005322 0.2705215,0.0260916 0.045466,0.0261019 0.057312,0.0499371 0.07255,0.1459796 0.027578,0.17380497 0.07063,0.20427754 0.303585,0.2148741 0.071229,0.003239 0.1303451,0.0113893 0.1513038,0.0208579 0.049502,0.0223628 0.07322,0.0702359 0.073264,0.14787205 C 3.0811004,1.0868391 3.056324,1.1387811 3.010461,1.162627 2.989265,1.173648 2.8264675,1.177612 2.2123627,1.182061 l -0.7714713,0.00559 z"
       style="fill:url(#linearGradient864);fill-opacity:1;stroke-width:0.0100031" />
  </g>
</svg>
